<svg xmlns="http://www.w3.org/2000/svg" width="600" height="400" viewBox="0 0 600 400">
  <g fill="none" fill-rule="evenodd">
    <rect width="600" height="400" fill="none"/>
    <g transform="translate(124.5 222)">
      <path fill="#FFF" d="M18.9209988,1.95433401 L33.259296,51.443436 L33.259296,51.443436 C33.5666778,52.5043744 32.9557995,53.613617 31.8948612,53.9209988 C31.7139843,53.9734036 31.5266126,54 31.3382972,54 L2.6617028,54 L2.6617028,54 C1.5571333,54 0.661702805,53.1045695 0.661702805,52 C0.661702805,51.8116846 0.688299176,51.6243129 0.74070397,51.443436 L15.0790012,1.95433401 L15.0790012,1.95433401 C15.386383,0.893395645 16.4956256,0.282517358 17.556564,0.589899164 C18.2152102,0.780726338 18.7301717,1.29568777 18.9209988,1.95433401 Z"/>
      <g stroke="#C2E8FF" stroke-linecap="round" stroke-width="3">
        <polygon stroke-linejoin="round" points="17 .324 34 54 0 54"/>
        <path d="M17,4.6953125 C17,43.0456294 17,62.6471919 17,63.5 C17,62.6471919 17,43.0456294 17,4.6953125 Z"/>
        <path stroke-linejoin="round" d="M17,29.3239437 C22.3333333,35.7851611 25,39.1184944 25,39.3239437 C25,39.1184944 22.3333333,35.7851611 17,29.3239437 Z" transform="matrix(-1 0 0 1 42 0)"/>
      </g>
    </g>
    <g transform="translate(145 194)">
      <path fill="#FFF" d="M25.6478873,0 L50.879042,84.4273253 L50.879042,84.4273253 C51.1953215,85.4856452 50.5937789,86.5999782 49.535459,86.9162577 C49.3496374,86.9717906 49.1567264,87 48.9627843,87 L2.33299037,87 L2.33299037,87 C1.22842087,87 0.332990367,86.1045695 0.332990367,85 C0.332990367,84.8060578 0.361199757,84.6131469 0.416732643,84.4273253 L25.6478873,0 Z" transform="translate(1)"/>
      <g stroke="#C2E8FF" stroke-linecap="round" stroke-width="3">
        <polygon stroke-linejoin="round" points="26.5 0 52.5 87 .5 87"/>
        <path d="M26.5,2.58642578 C26.5,61.0261034 26.5,90.9972948 26.5,92.5 C26.5,90.9972948 26.5,61.0261034 26.5,2.58642578 Z"/>
        <path stroke-linejoin="round" d="M15.6478873 42C22.314554 49.078692 25.6478873 52.7453587 25.6478873 53 25.6478873 52.7453587 22.314554 49.078692 15.6478873 42zM27.6478873 68C36.9812207 57.078692 41.6478873 51.7453587 41.6478873 52 41.6478873 51.7453587 36.9812207 57.078692 27.6478873 68z"/>
      </g>
    </g>
    <g stroke="#C2E8FF" stroke-linecap="round" stroke-linejoin="round" stroke-width="3" transform="matrix(-1 0 0 1 461 226)">
      <polyline points="0 38 47.5 0 80.5 26"/>
      <polyline points="71 17 80.5 9 113 36"/>
    </g>
    <g transform="translate(72 262.5)">
      <path fill="#C2E8FF" d="M153.962139,26.4644486 C151.225735,20.0143094 144.944776,15.5029106 137.633892,15.5029106 C135.619663,15.5029106 133.683612,15.8453541 131.878328,16.4764392 C128.451481,11.1704266 122.567406,7.66985447 115.883789,7.66985447 C109.491267,7.66985447 103.830159,10.8721423 100.350851,15.7935668 C98.9589956,14.968161 97.3423157,14.4956341 95.6177606,14.4956341 C94.1083143,14.4956341 92.6815102,14.8576334 91.4157672,15.5014039 C87.9975328,6.58722215 79.5098304,0.275259875 69.5804557,0.275259875 C60.4632836,0.275259875 52.5615782,5.59684366 48.6837305,13.3681823 C46.3912034,12.266973 43.8314865,11.6515593 41.1312741,11.6515593 C32.4373504,11.6515593 25.1998844,18.0312998 23.6476214,26.4644491 L153.962142,26.4644491 L153.962139,26.4644486 Z"/>
      <path stroke="#C2E8FF" stroke-linecap="round" stroke-width="3" d="M13 25L143 25M0 25L450 25"/>
    </g>
    <g transform="translate(344.293 247.055)">
      <path fill="#C2E8FF" d="M165.428708,41.9454545 L0.0995432562,41.9454545 C0.0336614956,41.2089487 0,40.4630069 0,39.7090909 C0,26.2132599 10.7866531,15.2727273 24.0926641,15.2727273 C27.7492016,15.2727273 31.215485,16.0989227 34.3199502,17.5772977 C39.5712028,7.14424616 50.271428,0 62.6175975,0 C76.0636257,0 87.5573893,8.47383452 92.1862485,20.441159 C93.9002755,19.5768947 95.8324059,19.0909091 97.8764479,19.0909091 C100.211783,19.0909091 102.401037,19.7252784 104.285841,20.8333889 C108.997403,14.2263569 116.663488,9.92727273 125.320028,9.92727273 C138.043441,9.92727273 148.627152,19.2146805 150.834755,31.4671412 C151.487388,31.3631046 152.156394,31.3090909 152.837838,31.3090909 C159.117096,31.3090909 164.340238,35.8953699 165.428708,41.9454545 L165.428708,41.9454545 Z"/>
      <path stroke="#C2E8FF" stroke-linecap="round" stroke-width="3" d="M32.7065637,40.4454545 L173.706564,40.4454545"/>
    </g>
    <g transform="translate(105 203)">
      <g fill="#FFF" transform="translate(106)">
        <polygon points="121.5 48.5 158.5 48.5 158.5 34.5 47.5 34.5 47.5 48.5 93.5 48.5 93.5 69.5 121.5 69.5 121.5 48.5"/>
        <path d="M33.9882812,0.21875 C36.5611979,0.21875 70.6126302,0.21875 136.142578,0.21875 L152.384766,11.1132813 C155.083088,16.811292 155.656656,19.677503 154.105469,19.7119141 C152.554281,19.7463252 116.293865,17.6717809 45.3242187,13.4882812 C35.1940104,4.64192708 31.4153646,0.21875 33.9882812,0.21875 Z"/>
        <path d="M32.6708984,2.02246094 L21.5554199,0.374195518 L17.6036034,0.374195518 L5.77148437,7.90429688 C3.09089817,12.6737672 3.09089817,15.2284547 5.77148437,15.5683594 C8.45207058,15.9082641 16.1278518,14.3268839 28.7988281,10.8242188 L42.9921875,7.90429688 L41.0699892,5.68448183 L32.6708984,2.02246094 Z"/>
        <rect width="48" height="14" y="34"/>
      </g>
      <g fill="#C2E8FF" transform="translate(106 5)">
        <polygon points="93.311 43.457 93.311 64.672 120.925 64.672 121.823 44.132 158.5 43.457 158.5 97.5 48.5 97.5 48.5 43.693"/>
        <path d="M132.670898,7.66300119e-19 C125.172201,-2.55433373e-19 94.1907552,-2.55433373e-19 39.7265625,7.66300119e-19 L31.8183594,12.5058594 L29.7050781,28.2714844 L157.78125,28.2714844 L157.78125,15.4775391 C148.539714,5.15917969 140.169596,1.78803361e-18 132.670898,7.66300119e-19 Z"/>
        <path d="M37.8266602,-3.55271368e-15 C34.4632704,-3.55271368e-15 29.4181858,-3.55271368e-15 22.6914062,-3.55271368e-15 C16.1624349,-3.55271368e-15 9.53808594,3.83528646 2.81835938,11.5058594 L0.705078125,30.2714844 L48.4101562,30.2714844 L48.4101562,14.4775391 L48.1789909,12.3275853 C43.283405,4.10919509 39.832628,-3.55271368e-15 37.8266602,-3.55271368e-15 Z"/>
        <rect width="48" height="54" x=".5" y="43.5"/>
      </g>
      <rect width="110" height="68" x="154.5" y="34.5" stroke="#8CD3F8" stroke-linecap="round" stroke-linejoin="round" stroke-width="3"/>
      <polygon stroke="#8CD3F8" stroke-linecap="round" stroke-linejoin="round" stroke-width="3" points="264.5 48.5 264.5 34.5 154.5 34.5 154.5 48.5 199.5 48.5 199.5 69.5 227.5 69.5 227.5 48.5"/>
      <path stroke="#8CD3F8" stroke-linecap="round" stroke-linejoin="round" stroke-width="3" d="M130.5,0.5 L234.5,0.5 L234.5,0.5 C251.068542,0.5 264.5,13.9314575 264.5,30.5 L264.5,34.5 L106.5,34.5 L106.5,24.5 L106.5,24.5 C106.5,11.245166 117.245166,0.5 130.5,0.5 Z"/>
      <path stroke="#8CD3F8" stroke-linecap="round" stroke-linejoin="round" stroke-width="3" d="M130.5,0.5 L130.5,0.5 L130.5,0.5 C143.754834,0.5 154.5,11.245166 154.5,24.5 L154.5,34.5 L106.5,34.5 L106.5,24.5 L106.5,24.5 C106.5,11.245166 117.245166,0.5 130.5,0.5 Z"/>
      <rect width="48" height="54" x="106.5" y="48.5" stroke="#8CD3F8" stroke-linecap="round" stroke-linejoin="round" stroke-width="3"/>
      <rect width="48" height="14" x="106.5" y="34.5" stroke="#8CD3F8" stroke-linecap="round" stroke-linejoin="round" stroke-width="3"/>
      <path fill="#8CD3F8" d="M219,52 C219,54.765 216.765,57 214,57 C211.235,57 209,54.765 209,52 C209,49.235 211.235,47 214,47 C216.765,47 219,49.235 219,52 Z"/>
      <path stroke="#8CD3F8" stroke-linecap="round" stroke-width="4" d="M214,55 L214,60"/>
      <circle cx="164" cy="58" r="3" fill="#8CD3F8"/>
      <circle cx="164" cy="93" r="3" fill="#8CD3F8"/>
      <circle cx="255" cy="58" r="3" fill="#8CD3F8"/>
      <circle cx="255" cy="93" r="3" fill="#8CD3F8"/>
      <circle cx="145" cy="58" r="3" fill="#8CD3F8"/>
      <circle cx="145" cy="93" r="3" fill="#8CD3F8"/>
      <circle cx="116" cy="58" r="3" fill="#8CD3F8"/>
      <circle cx="116" cy="93" r="3" fill="#8CD3F8"/>
      <path fill="#8CD3F8" d="M289.928751,82.2971422 L298,102.518658 L280,102.518658 L288.071249,82.2971422 L288.071249,82.2971422 C288.275982,81.784207 288.857768,81.5343604 289.370703,81.7390942 C289.625359,81.8407378 289.827108,82.0424867 289.928751,82.2971422 Z"/>
      <path fill="#8CD3F8" d="M300.428751,89.8132712 L305.5,102.518658 L293.5,102.518658 L298.571249,89.8132712 L298.571249,89.8132712 C298.775982,89.300336 299.357768,89.0504894 299.870703,89.2552232 C300.125359,89.3568668 300.327108,89.5586158 300.428751,89.8132712 Z"/>
      <path fill="#8CD3F8" d="M93.4287513,82.2971422 L101.5,102.518658 L83.5,102.518658 L91.5712487,82.2971422 L91.5712487,82.2971422 C91.7759825,81.784207 92.3577681,81.5343604 92.8707033,81.7390942 C93.1253588,81.8407378 93.3271077,82.0424867 93.4287513,82.2971422 Z" transform="matrix(-1 0 0 1 185 0)"/>
      <path fill="#8CD3F8" d="M76.9287513,89.8132712 L82,102.518658 L70,102.518658 L75.0712487,89.8132712 L75.0712487,89.8132712 C75.2759825,89.300336 75.8577681,89.0504894 76.3707033,89.2552232 C76.6253588,89.3568668 76.8271077,89.5586158 76.9287513,89.8132712 Z" transform="matrix(-1 0 0 1 152 0)"/>
      <path stroke="#8CD3F8" stroke-linecap="round" stroke-linejoin="round" stroke-width="3" d="M360 102.5L372 102.5M0 102.5L350 102.5"/>
    </g>
    <g stroke="#C2E8FF" stroke-linecap="round" stroke-width="3" transform="rotate(-15 624.421 -774.938)">
      <path d="M31.0360707,3.43528591 C31.0360707,3.43528591 40.5802283,0.671893051 42.6488424,10.6908663" transform="rotate(41 36.842 6.888)"/>
      <path d="M40.4282002,10.1797377 C40.4282002,10.1797377 49.9723578,7.4163448 52.0409719,17.435318" transform="scale(-1 1) rotate(-41 0 137.293)"/>
      <path d="M0.730284783,29.5865514 C0.730284783,29.5865514 10.2744424,26.8231586 12.3430565,36.8421318"/>
      <path d="M12.7302848,29.5865514 C12.7302848,29.5865514 22.2744424,26.8231586 24.3430565,36.8421318" transform="matrix(-1 0 0 1 37.073 0)"/>
    </g>
    <g stroke="#8CD3F8" transform="translate(330 75)">
      <g stroke-width="3">
        <path fill="#FFF" d="M67,120 C67,123.312 64.3135,126 61,126 C57.688,126 55,123.312 55,120 C55,116.688 57.688,114 61,114 C64.3135,114 67,116.688 67,120 Z"/>
        <path d="M52,135 C52,137.208 50.209,139 48,139 C45.792,139 44,137.208 44,135 C44,132.792 45.792,131 48,131 C50.209,131 52,132.792 52,135 Z"/>
        <path fill="#FFF" stroke-linecap="round" stroke-linejoin="round" d="M96.0568799,0 C78.2900529,0 62.8190358,10.0568662 54.6662185,24.9225726 C49.0099109,20.7996522 42.1151387,18.3495864 34.6598756,18.3495864 C15.5126256,18.3495864 0,34.3231272 0,54.0272817 C0,73.7339036 15.5126256,89.7074443 34.6598756,89.7074443 C35.0735129,89.7074443 35.4822552,89.6556302 35.9007877,89.6408262 C42.1591947,98.9155466 52.5662134,105 64.3683403,105 C72.7414379,105 80.4243239,101.940502 86.4134995,96.8503854 C89.5292414,97.5116317 92.7551235,97.8644609 96.0568799,97.8644609 C122.314287,97.8644609 142,76.3690196 142,49.3467431 C142,22.3219992 122.314287,0 96.0568799,0 Z"/>
      </g>
      <g stroke-width="6" transform="rotate(45 26.686 116.426)">
        <circle cx="15" cy="6" r="6"/>
        <circle cx="7" cy="18" r="7"/>
        <circle cx="25" cy="18" r="7"/>
        <path stroke-linecap="round" d="M15 24L15 72M12 34L18 34M15 55L25 55M15 65L27 65"/>
      </g>
    </g>
  </g>
</svg>
