<?xml version="1.0"?>
<svg width="19" height="14" xmlns="http://www.w3.org/2000/svg">
 <g>
  <title>background</title>
  <rect fill="none" id="canvas_background" height="16" width="21" y="-1" x="-1"/>
 </g>

 <g>
  <title>Layer 1</title>
  <g stroke="null" id="svg_1">
   <path stroke="null" id="svgDesktop" d="m15.607515,2l-12.926195,0c-0.375874,0 -0.681321,0.303779 -0.681321,0.677588l0,7.413712c0,0.373401 0.305024,0.677178 0.681321,0.677178l5.408419,0c-0.203352,0.564037 -0.57881,1.189405 -1.255129,1.654393c-0.170011,0.116875 -0.020405,0.193127 0.068345,0.193127l4.482917,0c0.08876,0 0.238358,-0.076252 0.068336,-0.193127c-0.677147,-0.464988 -1.051336,-1.090356 -1.255117,-1.654393l5.408424,0c0.375875,0 0.680475,-0.303363 0.680475,-0.677178l0,-7.413712c0,-0.3734 -0.304185,-0.677588 -0.680475,-0.677588zm-0.132506,0.794462l0,7.179555l0,0.070036l-0.070836,0l-12.518251,0l-0.070837,0l0,-0.070036l0,-7.179555l0,-0.070043l0.070837,0l12.518251,0l0.070836,0l0,0.070043z" fill="white"/>
  </g>
 </g>
</svg>