<?xml version="1.0"?>
<svg width="8.5" height="14" xmlns="http://www.w3.org/2000/svg">
 <g>
  <title>background</title>
  <rect fill="none" id="canvas_background" height="16" width="10.5" y="-1" x="-1"/>
 </g>

 <g>
  <title>Layer 1</title>
  <g stroke="null" id="svg_1">
   <path stroke="null" id="svgMobile" d="m7.002242,1l-5.176485,0c-0.454039,0 -0.825757,0.393528 -0.825757,0.878399l0,10.15767c0,0.487184 0.371718,0.879948 0.825757,0.879948l5.176122,0c0.456217,0 0.825757,-0.393148 0.825757,-0.879948l0,-10.15767c0.000363,-0.484872 -0.36954,-0.878399 -0.825394,-0.878399zm-2.587519,11.329765c-0.292657,0 -0.532007,-0.252075 -0.532007,-0.565428c0,-0.306417 0.23935,-0.564661 0.532007,-0.564661c0.294111,0 0.531285,0.258245 0.531285,0.564661c0,0.313357 -0.237536,0.565428 -0.531285,0.565428zm2.793504,-1.725185l-5.587731,0l0,-7.296994l5.587731,0l0,7.296994z" fill="#262626"/>
  </g>
 </g>
</svg>